<svg width="121" height="32" viewBox="0 0 121 32" fill="none" xmlns="http://www.w3.org/2000/svg">
<path fill-rule="evenodd" clip-rule="evenodd" d="M28.0412 13.9109H25.1039C24.4666 13.9109 23.8555 13.6578 23.4049 13.2072L16.3898 6.19212C15.0365 4.83881 12.8424 4.83881 11.4891 6.19212L4.09027 13.5909C2.73697 14.9442 2.73697 17.1383 4.09027 18.4917L11.4891 25.8904C12.8424 27.2437 15.0365 27.2437 16.3898 25.8904L23.4049 18.8754C23.8555 18.4248 24.4666 18.1716 25.1039 18.1716H28.0222C26.9688 24.9151 21.1349 30.0746 14.0959 30.0746C6.31094 30.0746 0 23.7636 0 15.9787C0 8.19375 6.31094 1.88281 14.0959 1.88281C21.1784 1.88281 27.0409 7.10626 28.0412 13.9109Z" fill="#7396CD"/>
<rect x="14.0703" y="11.2734" width="6.44462" height="6.44462" rx="0.805578" transform="rotate(45 14.0703 11.2734)" fill="#7396CD"/>
<path d="M45.118 24.0089C42.9912 24.0089 41.222 23.3031 39.8104 21.8915C38.4176 20.4611 37.7212 18.7201 37.7212 16.6686C37.7212 14.6171 38.4176 12.8855 39.8104 11.4739C41.222 10.0435 42.9912 9.3283 45.118 9.3283C46.9437 9.3283 48.4964 9.83647 49.7763 10.8528C51.0749 11.8692 51.9125 13.1772 52.2889 14.7771H49.014C48.7317 13.9866 48.2423 13.356 47.5459 12.8855C46.8684 12.3962 46.0591 12.1515 45.118 12.1515C43.8758 12.1515 42.8595 12.575 42.069 13.4219C41.2785 14.2689 40.8832 15.3511 40.8832 16.6686C40.8832 17.9861 41.2785 19.0683 42.069 19.9153C42.8595 20.7622 43.8758 21.1857 45.118 21.1857C46.0591 21.1857 46.8684 20.9504 47.5459 20.4799C48.2423 19.9905 48.7317 19.3506 49.014 18.5601H52.2889C51.9125 20.1599 51.0749 21.468 49.7763 22.4844C48.4964 23.5007 46.9437 24.0089 45.118 24.0089ZM56.7773 6.53334C56.2127 6.53334 55.7233 6.33572 55.3093 5.94047C54.8952 5.5264 54.6882 5.02764 54.6882 4.44418C54.6882 3.87954 54.8952 3.3996 55.3093 3.00436C55.7233 2.59029 56.2127 2.38325 56.7773 2.38325C57.3608 2.38325 57.8501 2.59029 58.2454 3.00436C58.6406 3.3996 58.8383 3.87954 58.8383 4.44418C58.8383 5.02764 58.6406 5.5264 58.2454 5.94047C57.8501 6.33572 57.3608 6.53334 56.7773 6.53334ZM55.2246 23.7266V9.61062H58.3301V23.7266H55.2246ZM68.6294 23.8677C67.199 23.8677 66.0321 23.4725 65.1287 22.682C64.2441 21.8727 63.8018 20.7058 63.8018 19.1812V12.3773H60.8657V9.61062H63.8018V5.68638H66.9073V9.61062H70.9444V12.3773H66.9073V18.6731C66.9073 19.5388 67.0955 20.1599 67.4719 20.5364C67.8483 20.894 68.4506 21.0728 69.2788 21.0728C69.9563 21.0728 70.5116 20.9787 70.9444 20.7904V23.5572C70.2669 23.7642 69.4952 23.8677 68.6294 23.8677ZM79.9359 24.0089C77.8279 24.0089 76.0963 23.3219 74.7412 21.948C73.3861 20.5552 72.7085 18.7954 72.7085 16.6686C72.7085 14.5418 73.3767 12.7914 74.713 11.4175C76.0493 10.0247 77.7996 9.3283 79.9641 9.3283C82.1474 9.3283 83.9071 10.0906 85.2435 11.6151C86.5798 13.1208 87.1726 15.0594 87.0221 17.4309H75.7858C75.8234 18.5225 76.2375 19.4353 77.028 20.1693C77.8185 20.9034 78.8254 21.2704 80.0488 21.2704C81.7803 21.2704 82.9661 20.6116 83.606 19.2942H86.8527C86.4198 20.6681 85.5916 21.7974 84.3683 22.682C83.1449 23.5666 81.6674 24.0089 79.9359 24.0089ZM79.8794 11.9256C78.863 11.9256 77.9879 12.2174 77.2538 12.8008C76.5386 13.3655 76.0775 14.1748 75.8705 15.2288H83.6907C83.4648 14.1371 83.0037 13.3184 82.3073 12.7726C81.611 12.208 80.8016 11.9256 79.8794 11.9256ZM96.5916 24.0089C94.4648 24.0089 92.6956 23.3031 91.284 21.8915C89.8912 20.4611 89.1948 18.7201 89.1948 16.6686C89.1948 14.6171 89.8912 12.8855 91.284 11.4739C92.6956 10.0435 94.4648 9.3283 96.5916 9.3283C98.4172 9.3283 99.97 9.83647 101.25 10.8528C102.549 11.8692 103.386 13.1772 103.762 14.7771H100.488C100.205 13.9866 99.7159 13.356 99.0195 12.8855C98.3419 12.3962 97.5326 12.1515 96.5916 12.1515C95.3494 12.1515 94.333 12.575 93.5425 13.4219C92.752 14.2689 92.3568 15.3511 92.3568 16.6686C92.3568 17.9861 92.752 19.0683 93.5425 19.9153C94.333 20.7622 95.3494 21.1857 96.5916 21.1857C97.5326 21.1857 98.3419 20.9504 99.0195 20.4799C99.7159 19.9905 100.205 19.3506 100.488 18.5601H103.762C103.386 20.1599 102.549 21.468 101.25 22.4844C99.97 23.5007 98.4172 24.0089 96.5916 24.0089ZM116.551 23.7266L109.804 16.9227V23.7266H106.698V2.55264H109.804V14.9747L115.196 9.61062H119.12L112.824 15.9063L120.532 23.7266H116.551Z" fill="#7396CD"/>
</svg>
