<svg width="122" height="30" viewBox="0 0 122 30" fill="none" xmlns="http://www.w3.org/2000/svg">
<path fill-rule="evenodd" clip-rule="evenodd" d="M29.9996 12.7952H26.8571C26.1777 12.7952 25.526 12.5263 25.0443 12.0472L17.5312 4.5743C16.085 3.13581 13.7484 3.13581 12.3021 4.5743L4.40055 12.4336C2.94331 13.883 2.94331 16.2414 4.40055 17.6908L12.3021 25.5501C13.7484 26.9886 16.085 26.9886 17.5312 25.5501L25.0443 18.0772C25.526 17.5981 26.1777 17.3292 26.8571 17.3292H29.9807C28.8556 24.5073 22.613 30 15.0807 30C6.75186 30 0 23.2843 0 15C0 6.71573 6.75186 0 15.0807 0C22.6565 0 28.9276 5.55623 29.9996 12.7952Z" fill="#7396CD"/>
<rect width="6.87646" height="6.87646" rx="0.861861" transform="matrix(0.709001 0.705207 -0.709001 0.705207 15.0547 10)" fill="#7396CD"/>
<path d="M45.6336 23.0323C43.5068 23.0323 41.7376 22.3265 40.326 20.9149C38.9333 19.4845 38.2369 17.7435 38.2369 15.692C38.2369 13.6405 38.9333 11.909 40.326 10.4974C41.7376 9.06694 43.5068 8.35174 45.6336 8.35174C47.4593 8.35174 49.012 8.85991 50.2919 9.87626C51.5906 10.8926 52.4281 12.2007 52.8045 13.8005H49.5296C49.2473 13.01 48.758 12.3795 48.0616 11.909C47.384 11.4196 46.5747 11.1749 45.6336 11.1749C44.3914 11.1749 43.3751 11.5984 42.5846 12.4454C41.7941 13.2923 41.3988 14.3745 41.3988 15.692C41.3988 17.0095 41.7941 18.0917 42.5846 18.9387C43.3751 19.7857 44.3914 20.2091 45.6336 20.2091C46.5747 20.2091 47.384 19.9739 48.0616 19.5033C48.758 19.014 49.2473 18.3741 49.5296 17.5836H52.8045C52.4281 19.1834 51.5906 20.4914 50.2919 21.5078C49.012 22.5241 47.4593 23.0323 45.6336 23.0323ZM57.293 5.55678C56.7283 5.55678 56.239 5.35916 55.8249 4.96391C55.4108 4.54984 55.2038 4.05108 55.2038 3.46762C55.2038 2.90298 55.4108 2.42304 55.8249 2.02779C56.239 1.61373 56.7283 1.40669 57.293 1.40669C57.8764 1.40669 58.3658 1.61373 58.761 2.02779C59.1563 2.42304 59.3539 2.90298 59.3539 3.46762C59.3539 4.05108 59.1563 4.54984 58.761 4.96391C58.3658 5.35916 57.8764 5.55678 57.293 5.55678ZM55.7402 22.75V8.63406H58.8457V22.75H55.7402ZM69.1451 22.8912C67.7146 22.8912 66.5477 22.4959 65.6443 21.7054C64.7597 20.8961 64.3174 19.7292 64.3174 18.2047V11.4008H61.3813V8.63406H64.3174V4.70982H67.4229V8.63406H71.4601V11.4008H67.4229V17.6965C67.4229 18.5623 67.6111 19.1834 67.9875 19.5598C68.364 19.9174 68.9663 20.0962 69.7944 20.0962C70.472 20.0962 71.0272 20.0021 71.4601 19.8139V22.5806C70.7825 22.7876 70.0108 22.8912 69.1451 22.8912ZM80.4515 23.0323C78.3435 23.0323 76.6119 22.3453 75.2568 20.9714C73.9017 19.5786 73.2241 17.8188 73.2241 15.692C73.2241 13.5652 73.8923 11.8148 75.2286 10.4409C76.5649 9.04812 78.3153 8.35174 80.4797 8.35174C82.663 8.35174 84.4228 9.114 85.7591 10.6385C87.0954 12.1442 87.6883 14.0828 87.5377 16.4543H76.3014C76.339 17.5459 76.7531 18.4588 77.5436 19.1928C78.3341 19.9268 79.341 20.2938 80.5644 20.2938C82.296 20.2938 83.4817 19.6351 84.1216 18.3176H87.3683C86.9354 19.6915 86.1073 20.8208 84.8839 21.7054C83.6605 22.59 82.183 23.0323 80.4515 23.0323ZM80.395 10.9491C79.3787 10.9491 78.5035 11.2408 77.7695 11.8243C77.0542 12.3889 76.5931 13.1982 76.3861 14.2522H84.2063C83.9805 13.1606 83.5193 12.3418 82.823 11.796C82.1266 11.2314 81.3173 10.9491 80.395 10.9491ZM97.1072 23.0323C94.9804 23.0323 93.2112 22.3265 91.7996 20.9149C90.4068 19.4845 89.7104 17.7435 89.7104 15.692C89.7104 13.6405 90.4068 11.909 91.7996 10.4974C93.2112 9.06694 94.9804 8.35174 97.1072 8.35174C98.9329 8.35174 100.486 8.85991 101.765 9.87626C103.064 10.8926 103.902 12.2007 104.278 13.8005H101.003C100.721 13.01 100.232 12.3795 99.5351 11.909C98.8576 11.4196 98.0483 11.1749 97.1072 11.1749C95.865 11.1749 94.8486 11.5984 94.0582 12.4454C93.2677 13.2923 92.8724 14.3745 92.8724 15.692C92.8724 17.0095 93.2677 18.0917 94.0582 18.9387C94.8486 19.7857 95.865 20.2091 97.1072 20.2091C98.0483 20.2091 98.8576 19.9739 99.5351 19.5033C100.232 19.014 100.721 18.3741 101.003 17.5836H104.278C103.902 19.1834 103.064 20.4914 101.765 21.5078C100.486 22.5241 98.9329 23.0323 97.1072 23.0323ZM117.067 22.75L110.319 15.9461V22.75H107.214V1.57608H110.319V13.9981L115.712 8.63406H119.636L113.34 14.9298L121.047 22.75H117.067Z" fill="#7396CD"/>
</svg>
