<svg width="122" height="31" viewBox="0 0 122 31" fill="none" xmlns="http://www.w3.org/2000/svg">
<path fill-rule="evenodd" clip-rule="evenodd" d="M29.9996 13.6155H26.8571C26.1777 13.6155 25.526 13.3466 25.0443 12.8675L17.5312 5.39461C16.085 3.95612 13.7484 3.95612 12.3021 5.39461L4.40055 13.2539C2.94331 14.7034 2.94331 17.0617 4.40055 18.5111L12.3021 26.3704C13.7484 27.8089 16.085 27.8089 17.5312 26.3704L25.0443 18.8976C25.526 18.4184 26.1777 18.1495 26.8571 18.1495H29.9807C28.8556 25.3276 22.613 30.8203 15.0807 30.8203C6.75186 30.8203 0 24.1046 0 15.8203C0 7.53604 6.75186 0.820312 15.0807 0.820312C22.6565 0.820312 28.9276 6.37654 29.9996 13.6155Z" fill="#7396CD"/>
<rect width="6.87646" height="6.87646" rx="0.861861" transform="matrix(0.709001 0.705207 -0.709001 0.705207 15.0547 10.8203)" fill="#7396CD"/>
<path d="M45.6336 23.8526C43.5068 23.8526 41.7376 23.1468 40.326 21.7352C38.9333 20.3048 38.2369 18.5639 38.2369 16.5123C38.2369 14.4608 38.9333 12.7293 40.326 11.3177C41.7376 9.88726 43.5068 9.17205 45.6336 9.17205C47.4593 9.17205 49.012 9.68022 50.2919 10.6966C51.5906 11.7129 52.4281 13.021 52.8045 14.6208H49.5296C49.2473 13.8303 48.758 13.1998 48.0616 12.7293C47.384 12.2399 46.5747 11.9952 45.6336 11.9952C44.3914 11.9952 43.3751 12.4187 42.5846 13.2657C41.7941 14.1126 41.3988 15.1949 41.3988 16.5123C41.3988 17.8298 41.7941 18.9121 42.5846 19.759C43.3751 20.606 44.3914 21.0294 45.6336 21.0294C46.5747 21.0294 47.384 20.7942 48.0616 20.3236C48.758 19.8343 49.2473 19.1944 49.5296 18.4039H52.8045C52.4281 20.0037 51.5906 21.3118 50.2919 22.3281C49.012 23.3445 47.4593 23.8526 45.6336 23.8526ZM57.293 6.37709C56.7283 6.37709 56.239 6.17947 55.8249 5.78422C55.4108 5.37015 55.2038 4.87139 55.2038 4.28793C55.2038 3.72329 55.4108 3.24335 55.8249 2.84811C56.239 2.43404 56.7283 2.227 57.293 2.227C57.8764 2.227 58.3658 2.43404 58.761 2.84811C59.1563 3.24335 59.3539 3.72329 59.3539 4.28793C59.3539 4.87139 59.1563 5.37015 58.761 5.78422C58.3658 6.17947 57.8764 6.37709 57.293 6.37709ZM55.7402 23.5703V9.45437H58.8457V23.5703H55.7402ZM69.1451 23.7115C67.7146 23.7115 66.5477 23.3162 65.6443 22.5257C64.7597 21.7164 64.3174 20.5495 64.3174 19.025V12.2211H61.3813V9.45437H64.3174V5.53013H67.4229V9.45437H71.4601V12.2211H67.4229V18.5168C67.4229 19.3826 67.6111 20.0037 67.9875 20.3801C68.364 20.7377 68.9663 20.9165 69.7944 20.9165C70.472 20.9165 71.0272 20.8224 71.4601 20.6342V23.4009C70.7825 23.608 70.0108 23.7115 69.1451 23.7115ZM80.4515 23.8526C78.3435 23.8526 76.6119 23.1657 75.2568 21.7917C73.9017 20.3989 73.2241 18.6391 73.2241 16.5123C73.2241 14.3855 73.8923 12.6352 75.2286 11.2612C76.5649 9.86844 78.3153 9.17205 80.4797 9.17205C82.663 9.17205 84.4228 9.93431 85.7591 11.4588C87.0954 12.9645 87.6883 14.9031 87.5377 17.2746H76.3014C76.339 18.3662 76.7531 19.2791 77.5436 20.0131C78.3341 20.7471 79.341 21.1141 80.5644 21.1141C82.296 21.1141 83.4817 20.4554 84.1216 19.1379H87.3683C86.9354 20.5119 86.1073 21.6411 84.8839 22.5257C83.6605 23.4103 82.183 23.8526 80.4515 23.8526ZM80.395 11.7694C79.3787 11.7694 78.5035 12.0611 77.7695 12.6446C77.0542 13.2092 76.5931 14.0185 76.3861 15.0725H84.2063C83.9805 13.9809 83.5193 13.1622 82.823 12.6163C82.1266 12.0517 81.3173 11.7694 80.395 11.7694ZM97.1072 23.8526C94.9804 23.8526 93.2112 23.1468 91.7996 21.7352C90.4068 20.3048 89.7104 18.5639 89.7104 16.5123C89.7104 14.4608 90.4068 12.7293 91.7996 11.3177C93.2112 9.88726 94.9804 9.17205 97.1072 9.17205C98.9329 9.17205 100.486 9.68022 101.765 10.6966C103.064 11.7129 103.902 13.021 104.278 14.6208H101.003C100.721 13.8303 100.232 13.1998 99.5351 12.7293C98.8576 12.2399 98.0483 11.9952 97.1072 11.9952C95.865 11.9952 94.8486 12.4187 94.0582 13.2657C93.2677 14.1126 92.8724 15.1949 92.8724 16.5123C92.8724 17.8298 93.2677 18.9121 94.0582 19.759C94.8486 20.606 95.865 21.0294 97.1072 21.0294C98.0483 21.0294 98.8576 20.7942 99.5351 20.3236C100.232 19.8343 100.721 19.1944 101.003 18.4039H104.278C103.902 20.0037 103.064 21.3118 101.765 22.3281C100.486 23.3445 98.9329 23.8526 97.1072 23.8526ZM117.067 23.5703L110.319 16.7664V23.5703H107.214V2.39639H110.319V14.8184L115.712 9.45437H119.636L113.34 15.7501L121.047 23.5703H117.067Z" fill="#7396CD"/>
</svg>
