<svg width="122" height="31" viewBox="0 0 122 31" fill="none" xmlns="http://www.w3.org/2000/svg">
<path fill-rule="evenodd" clip-rule="evenodd" d="M29.9996 13.6155H26.8571C26.1777 13.6155 25.526 13.3466 25.0443 12.8675L17.5312 5.39461C16.085 3.95612 13.7484 3.95612 12.3021 5.39461L4.40055 13.2539C2.94331 14.7034 2.94331 17.0617 4.40055 18.5111L12.3021 26.3704C13.7484 27.8089 16.085 27.8089 17.5312 26.3704L25.0443 18.8976C25.526 18.4184 26.1777 18.1495 26.8571 18.1495H29.9807C28.8556 25.3276 22.613 30.8203 15.0807 30.8203C6.75186 30.8203 0 24.1046 0 15.8203C0 7.53604 6.75186 0.820312 15.0807 0.820312C22.6565 0.820312 28.9276 6.37654 29.9996 13.6155Z" fill="#7396CD"/>
<rect width="6.87646" height="6.87646" rx="0.861861" transform="matrix(0.709001 0.705207 -0.709001 0.705207 15.0547 10.8203)" fill="#7396CD"/>
<path d="M46.1024 23.8526C43.9756 23.8526 42.2064 23.1468 40.7948 21.7352C39.402 20.3048 38.7056 18.5639 38.7056 16.5123C38.7056 14.4608 39.402 12.7293 40.7948 11.3177C42.2064 9.88726 43.9756 9.17205 46.1024 9.17205C47.928 9.17205 49.4808 9.68022 50.7606 10.6966C52.0593 11.7129 52.8969 13.021 53.2733 14.6208H49.9984C49.7161 13.8303 49.2267 13.1998 48.5303 12.7293C47.8528 12.2399 47.0434 11.9952 46.1024 11.9952C44.8602 11.9952 43.8438 12.4187 43.0533 13.2657C42.2628 14.1126 41.8676 15.1949 41.8676 16.5123C41.8676 17.8298 42.2628 18.9121 43.0533 19.759C43.8438 20.606 44.8602 21.0294 46.1024 21.0294C47.0434 21.0294 47.8528 20.7942 48.5303 20.3236C49.2267 19.8343 49.7161 19.1944 49.9984 18.4039H53.2733C52.8969 20.0037 52.0593 21.3118 50.7606 22.3281C49.4808 23.3445 47.928 23.8526 46.1024 23.8526ZM57.7617 6.37709C57.1971 6.37709 56.7077 6.17947 56.2936 5.78422C55.8796 5.37015 55.6725 4.87139 55.6725 4.28793C55.6725 3.72329 55.8796 3.24335 56.2936 2.84811C56.7077 2.43404 57.1971 2.227 57.7617 2.227C58.3452 2.227 58.8345 2.43404 59.2298 2.84811C59.625 3.24335 59.8226 3.72329 59.8226 4.28793C59.8226 4.87139 59.625 5.37015 59.2298 5.78422C58.8345 6.17947 58.3452 6.37709 57.7617 6.37709ZM56.209 23.5703V9.45437H59.3145V23.5703H56.209ZM69.6138 23.7115C68.1834 23.7115 67.0165 23.3162 66.1131 22.5257C65.2285 21.7164 64.7862 20.5495 64.7862 19.025V12.2211H61.85V9.45437H64.7862V5.53013H67.8917V9.45437H71.9288V12.2211H67.8917V18.5168C67.8917 19.3826 68.0799 20.0037 68.4563 20.3801C68.8327 20.7377 69.435 20.9165 70.2631 20.9165C70.9407 20.9165 71.4959 20.8224 71.9288 20.6342V23.4009C71.2513 23.608 70.4796 23.7115 69.6138 23.7115ZM80.9202 23.8526C78.8123 23.8526 77.0807 23.1657 75.7256 21.7917C74.3704 20.3989 73.6929 18.6391 73.6929 16.5123C73.6929 14.3855 74.361 12.6352 75.6973 11.2612C77.0336 9.86844 78.784 9.17205 80.9485 9.17205C83.1317 9.17205 84.8915 9.93431 86.2278 11.4588C87.5641 12.9645 88.157 14.9031 88.0064 17.2746H76.7701C76.8078 18.3662 77.2219 19.2791 78.0123 20.0131C78.8028 20.7471 79.8098 21.1141 81.0332 21.1141C82.7647 21.1141 83.9505 20.4554 84.5904 19.1379H87.837C87.4042 20.5119 86.576 21.6411 85.3526 22.5257C84.1293 23.4103 82.6518 23.8526 80.9202 23.8526ZM80.8638 11.7694C79.8474 11.7694 78.9722 12.0611 78.2382 12.6446C77.523 13.2092 77.0619 14.0185 76.8548 15.0725H84.6751C84.4492 13.9809 83.9881 13.1622 83.2917 12.6163C82.5953 12.0517 81.786 11.7694 80.8638 11.7694ZM97.5759 23.8526C95.4491 23.8526 93.6799 23.1468 92.2684 21.7352C90.8756 20.3048 90.1792 18.5639 90.1792 16.5123C90.1792 14.4608 90.8756 12.7293 92.2684 11.3177C93.6799 9.88726 95.4491 9.17205 97.5759 9.17205C99.4016 9.17205 100.954 9.68022 102.234 10.6966C103.533 11.7129 104.37 13.021 104.747 14.6208H101.472C101.19 13.8303 100.7 13.1998 100.004 12.7293C99.3263 12.2399 98.517 11.9952 97.5759 11.9952C96.3337 11.9952 95.3174 12.4187 94.5269 13.2657C93.7364 14.1126 93.3412 15.1949 93.3412 16.5123C93.3412 17.8298 93.7364 18.9121 94.5269 19.759C95.3174 20.606 96.3337 21.0294 97.5759 21.0294C98.517 21.0294 99.3263 20.7942 100.004 20.3236C100.7 19.8343 101.19 19.1944 101.472 18.4039H104.747C104.37 20.0037 103.533 21.3118 102.234 22.3281C100.954 23.3445 99.4016 23.8526 97.5759 23.8526ZM117.535 23.5703L110.788 16.7664V23.5703H107.683V2.39639H110.788V14.8184L116.18 9.45437H120.105L113.809 15.7501L121.516 23.5703H117.535Z" fill="#7396CD"/>
</svg>
