<svg width="29" height="32" viewBox="0 0 29 32" fill="none" xmlns="http://www.w3.org/2000/svg">
<path fill-rule="evenodd" clip-rule="evenodd" d="M28.0412 13.9109H25.1039C24.4666 13.9109 23.8555 13.6578 23.4049 13.2072L16.3898 6.19212C15.0365 4.83881 12.8424 4.83881 11.4891 6.19212L4.09027 13.5909C2.73697 14.9442 2.73697 17.1383 4.09027 18.4917L11.4891 25.8904C12.8424 27.2437 15.0365 27.2437 16.3898 25.8904L23.4049 18.8754C23.8555 18.4248 24.4666 18.1716 25.1039 18.1716H28.0222C26.9688 24.9151 21.1349 30.0746 14.0959 30.0746C6.31094 30.0746 0 23.7636 0 15.9787C0 8.19375 6.31094 1.88281 14.0959 1.88281C21.1784 1.88281 27.0409 7.10626 28.0412 13.9109Z" fill="#7396CD"/>
<rect x="14.0703" y="11.2734" width="6.44462" height="6.44462" rx="0.805578" transform="rotate(45 14.0703 11.2734)" fill="#7396CD"/>
</svg>
