<svg width="30" height="30" viewBox="0 0 30 30" fill="none" xmlns="http://www.w3.org/2000/svg">
<path fill-rule="evenodd" clip-rule="evenodd" d="M29.9996 12.7952H26.8571C26.1777 12.7952 25.526 12.5263 25.0443 12.0472L17.5312 4.5743C16.085 3.13581 13.7484 3.13581 12.3021 4.5743L4.40055 12.4336C2.94331 13.883 2.94331 16.2414 4.40055 17.6908L12.3021 25.5501C13.7484 26.9886 16.085 26.9886 17.5312 25.5501L25.0443 18.0772C25.526 17.5981 26.1777 17.3292 26.8571 17.3292H29.9807C28.8556 24.5073 22.613 30 15.0807 30C6.75186 30 0 23.2843 0 15C0 6.71573 6.75186 0 15.0807 0C22.6565 0 28.9276 5.55623 29.9996 12.7952Z" fill="#7396CD"/>
<rect width="6.87646" height="6.87646" rx="0.861861" transform="matrix(0.709001 0.705207 -0.709001 0.705207 15.0547 10)" fill="#7396CD"/>
</svg>
